<svg width="100" height="100" viewBox="0 0 100 100" fill="none" xmlns="http://www.w3.org/2000/svg">
<path d="M32 80V21.7973H40.5502V30.1689H42.3881L40.5502 32.1622C40.5502 28.7072 41.6157 25.9964 43.7466 24.0297C45.9307 22.0099 48.8341 21 52.4566 21C56.8782 21 60.3942 22.4883 63.0046 25.4649C65.6682 28.3883 67 32.4013 67 37.5041V49.8622C67 53.264 66.3874 56.214 65.1621 58.7122C63.9901 61.1572 62.312 63.0707 60.1279 64.4527C57.997 65.7815 55.4399 66.4459 52.4566 66.4459C48.8874 66.4459 46.0107 65.4626 43.8265 63.4959C41.6423 61.4761 40.5502 58.7387 40.5502 55.2838L42.3881 57.277H40.3904L40.6301 67.4824V80H32ZM49.5 58.9514C52.3234 58.9514 54.5076 58.1541 56.0525 56.5595C57.6507 54.9117 58.4498 52.5464 58.4498 49.4635V37.9824C58.4498 34.8995 57.6507 32.5608 56.0525 30.9662C54.5076 29.3185 52.3234 28.4946 49.5 28.4946C46.7831 28.4946 44.6256 29.345 43.0274 31.0459C41.4292 32.6937 40.6301 35.0059 40.6301 37.9824V49.4635C40.6301 52.4401 41.4292 54.7788 43.0274 56.4797C44.6256 58.1275 46.7831 58.9514 49.5 58.9514Z" fill="#A093DB"/>
</svg>
